<mxfile host="app.diagrams.net" modified="2024-02-15T18:57:19.063Z" agent="Mozilla/5.0 (Windows NT 10.0; Win64; x64) AppleWebKit/537.36 (KHTML, like Gecko) Chrome/121.0.0.0 Safari/537.36" etag="5wnUVn_dEQOnN8oJemXp" version="23.1.4" type="device" pages="4">
  <diagram name="Página-1" id="fgtwDde54G89PN88ClLQ">
    <mxGraphModel dx="1050" dy="565" grid="1" gridSize="10" guides="1" tooltips="1" connect="1" arrows="1" fold="1" page="1" pageScale="1" pageWidth="827" pageHeight="1169" math="0" shadow="0">
      <root>
        <mxCell id="0" />
        <mxCell id="1" parent="0" />
        <mxCell id="puCfPJYySm3gpiYqL4hh-4" value="" style="edgeStyle=orthogonalEdgeStyle;rounded=0;orthogonalLoop=1;jettySize=auto;html=1;" edge="1" parent="1" source="puCfPJYySm3gpiYqL4hh-2" target="puCfPJYySm3gpiYqL4hh-3">
          <mxGeometry relative="1" as="geometry" />
        </mxCell>
        <mxCell id="puCfPJYySm3gpiYqL4hh-2" value="&lt;font style=&quot;vertical-align: inherit;&quot;&gt;&lt;font style=&quot;vertical-align: inherit;&quot;&gt;&lt;font style=&quot;vertical-align: inherit;&quot;&gt;&lt;font style=&quot;vertical-align: inherit;&quot;&gt;início&lt;/font&gt;&lt;/font&gt;&lt;/font&gt;&lt;/font&gt;" style="strokeWidth=2;html=1;shape=mxgraph.flowchart.start_1;whiteSpace=wrap;fillColor=#006633;strokeColor=#000000;" vertex="1" parent="1">
          <mxGeometry x="60" y="20" width="100" height="60" as="geometry" />
        </mxCell>
        <mxCell id="puCfPJYySm3gpiYqL4hh-6" value="" style="edgeStyle=orthogonalEdgeStyle;rounded=0;orthogonalLoop=1;jettySize=auto;html=1;" edge="1" parent="1" source="puCfPJYySm3gpiYqL4hh-3" target="puCfPJYySm3gpiYqL4hh-5">
          <mxGeometry relative="1" as="geometry" />
        </mxCell>
        <mxCell id="puCfPJYySm3gpiYqL4hh-3" value="recebe o 1º&amp;nbsp;&lt;br&gt;numero" style="shape=parallelogram;perimeter=parallelogramPerimeter;whiteSpace=wrap;html=1;fixedSize=1;fillColor=#994C00;strokeWidth=2;" vertex="1" parent="1">
          <mxGeometry x="50" y="110" width="120" height="60" as="geometry" />
        </mxCell>
        <mxCell id="puCfPJYySm3gpiYqL4hh-8" value="" style="edgeStyle=orthogonalEdgeStyle;rounded=0;orthogonalLoop=1;jettySize=auto;html=1;" edge="1" parent="1" source="puCfPJYySm3gpiYqL4hh-5" target="puCfPJYySm3gpiYqL4hh-7">
          <mxGeometry relative="1" as="geometry" />
        </mxCell>
        <mxCell id="puCfPJYySm3gpiYqL4hh-5" value="recebe o 2º&lt;br&gt;numero" style="shape=parallelogram;perimeter=parallelogramPerimeter;whiteSpace=wrap;html=1;fixedSize=1;fillColor=#994C00;strokeWidth=2;" vertex="1" parent="1">
          <mxGeometry x="50" y="200" width="120" height="60" as="geometry" />
        </mxCell>
        <mxCell id="puCfPJYySm3gpiYqL4hh-10" value="" style="edgeStyle=orthogonalEdgeStyle;rounded=0;orthogonalLoop=1;jettySize=auto;html=1;" edge="1" parent="1" source="puCfPJYySm3gpiYqL4hh-7" target="puCfPJYySm3gpiYqL4hh-9">
          <mxGeometry relative="1" as="geometry" />
        </mxCell>
        <mxCell id="puCfPJYySm3gpiYqL4hh-7" value="realiza a soma dos&lt;br&gt;numeros obtidos" style="whiteSpace=wrap;html=1;fillColor=#003366;strokeWidth=2;" vertex="1" parent="1">
          <mxGeometry x="50" y="290" width="120" height="60" as="geometry" />
        </mxCell>
        <mxCell id="puCfPJYySm3gpiYqL4hh-12" value="" style="edgeStyle=orthogonalEdgeStyle;rounded=0;orthogonalLoop=1;jettySize=auto;html=1;" edge="1" parent="1" source="puCfPJYySm3gpiYqL4hh-9" target="puCfPJYySm3gpiYqL4hh-11">
          <mxGeometry relative="1" as="geometry" />
        </mxCell>
        <mxCell id="puCfPJYySm3gpiYqL4hh-9" value="exibe o resultado&lt;br&gt;da soma" style="strokeWidth=2;html=1;shape=mxgraph.flowchart.display;whiteSpace=wrap;fillColor=#CC6600;" vertex="1" parent="1">
          <mxGeometry x="60" y="380" width="100" height="60" as="geometry" />
        </mxCell>
        <mxCell id="puCfPJYySm3gpiYqL4hh-11" value="fim" style="strokeWidth=2;html=1;shape=mxgraph.flowchart.start_1;whiteSpace=wrap;fillColor=#FF5252;" vertex="1" parent="1">
          <mxGeometry x="60" y="470" width="100" height="60" as="geometry" />
        </mxCell>
        <mxCell id="puCfPJYySm3gpiYqL4hh-15" value="" style="edgeStyle=orthogonalEdgeStyle;rounded=0;orthogonalLoop=1;jettySize=auto;html=1;" edge="1" parent="1" source="puCfPJYySm3gpiYqL4hh-13" target="puCfPJYySm3gpiYqL4hh-14">
          <mxGeometry relative="1" as="geometry" />
        </mxCell>
        <mxCell id="puCfPJYySm3gpiYqL4hh-13" value="&lt;font style=&quot;vertical-align: inherit;&quot;&gt;&lt;font style=&quot;vertical-align: inherit;&quot;&gt;&lt;font style=&quot;vertical-align: inherit;&quot;&gt;&lt;font style=&quot;vertical-align: inherit;&quot;&gt;início&lt;/font&gt;&lt;/font&gt;&lt;/font&gt;&lt;/font&gt;" style="strokeWidth=2;html=1;shape=mxgraph.flowchart.start_1;whiteSpace=wrap;fillColor=#006633;strokeColor=#000000;" vertex="1" parent="1">
          <mxGeometry x="414" y="20" width="100" height="60" as="geometry" />
        </mxCell>
        <mxCell id="puCfPJYySm3gpiYqL4hh-17" value="" style="edgeStyle=orthogonalEdgeStyle;rounded=0;orthogonalLoop=1;jettySize=auto;html=1;" edge="1" parent="1" source="puCfPJYySm3gpiYqL4hh-14" target="puCfPJYySm3gpiYqL4hh-16">
          <mxGeometry relative="1" as="geometry" />
        </mxCell>
        <mxCell id="puCfPJYySm3gpiYqL4hh-14" value="obter 1º nota" style="shape=parallelogram;perimeter=parallelogramPerimeter;whiteSpace=wrap;html=1;fixedSize=1;fillColor=#994C00;strokeColor=#000000;strokeWidth=2;" vertex="1" parent="1">
          <mxGeometry x="404" y="100" width="120" height="60" as="geometry" />
        </mxCell>
        <mxCell id="puCfPJYySm3gpiYqL4hh-19" value="" style="edgeStyle=orthogonalEdgeStyle;rounded=0;orthogonalLoop=1;jettySize=auto;html=1;" edge="1" parent="1" source="puCfPJYySm3gpiYqL4hh-16" target="puCfPJYySm3gpiYqL4hh-18">
          <mxGeometry relative="1" as="geometry" />
        </mxCell>
        <mxCell id="puCfPJYySm3gpiYqL4hh-16" value="obter 2º nota" style="shape=parallelogram;perimeter=parallelogramPerimeter;whiteSpace=wrap;html=1;fixedSize=1;fillColor=#994C00;strokeColor=#000000;strokeWidth=2;" vertex="1" parent="1">
          <mxGeometry x="404" y="190" width="120" height="60" as="geometry" />
        </mxCell>
        <mxCell id="puCfPJYySm3gpiYqL4hh-21" value="" style="edgeStyle=orthogonalEdgeStyle;rounded=0;orthogonalLoop=1;jettySize=auto;html=1;" edge="1" parent="1" source="puCfPJYySm3gpiYqL4hh-18" target="puCfPJYySm3gpiYqL4hh-20">
          <mxGeometry relative="1" as="geometry" />
        </mxCell>
        <mxCell id="puCfPJYySm3gpiYqL4hh-18" value="realiza o calculo da&lt;br&gt;media" style="whiteSpace=wrap;html=1;fillColor=#003366;strokeColor=#000000;strokeWidth=2;" vertex="1" parent="1">
          <mxGeometry x="404" y="280" width="120" height="60" as="geometry" />
        </mxCell>
        <mxCell id="puCfPJYySm3gpiYqL4hh-23" value="" style="edgeStyle=orthogonalEdgeStyle;rounded=0;orthogonalLoop=1;jettySize=auto;html=1;" edge="1" parent="1" source="puCfPJYySm3gpiYqL4hh-20" target="puCfPJYySm3gpiYqL4hh-22">
          <mxGeometry relative="1" as="geometry" />
        </mxCell>
        <mxCell id="puCfPJYySm3gpiYqL4hh-25" value="" style="edgeStyle=orthogonalEdgeStyle;rounded=0;orthogonalLoop=1;jettySize=auto;html=1;" edge="1" parent="1" source="puCfPJYySm3gpiYqL4hh-20" target="puCfPJYySm3gpiYqL4hh-24">
          <mxGeometry relative="1" as="geometry" />
        </mxCell>
        <mxCell id="puCfPJYySm3gpiYqL4hh-20" value="media acima de&amp;nbsp;&lt;br&gt;7?" style="rhombus;whiteSpace=wrap;html=1;fillColor=#990000;strokeColor=#000000;strokeWidth=2;" vertex="1" parent="1">
          <mxGeometry x="409" y="370" width="110" height="80" as="geometry" />
        </mxCell>
        <mxCell id="puCfPJYySm3gpiYqL4hh-22" value="exibir &quot;aprovado&quot;" style="strokeWidth=2;html=1;shape=mxgraph.flowchart.display;whiteSpace=wrap;fillColor=#994C00;" vertex="1" parent="1">
          <mxGeometry x="580" y="490" width="100" height="60" as="geometry" />
        </mxCell>
        <mxCell id="puCfPJYySm3gpiYqL4hh-24" value="exibir &quot;reprovado&quot;" style="strokeWidth=2;html=1;shape=mxgraph.flowchart.display;whiteSpace=wrap;fillColor=#994C00;" vertex="1" parent="1">
          <mxGeometry x="260" y="490" width="100" height="60" as="geometry" />
        </mxCell>
        <mxCell id="puCfPJYySm3gpiYqL4hh-26" value="SIM" style="text;html=1;align=center;verticalAlign=middle;resizable=0;points=[];autosize=1;strokeColor=none;fillColor=none;" vertex="1" parent="1">
          <mxGeometry x="520" y="368" width="40" height="30" as="geometry" />
        </mxCell>
        <mxCell id="puCfPJYySm3gpiYqL4hh-27" value="NÂO" style="text;html=1;align=center;verticalAlign=middle;resizable=0;points=[];autosize=1;strokeColor=none;fillColor=none;" vertex="1" parent="1">
          <mxGeometry x="364" y="370" width="50" height="30" as="geometry" />
        </mxCell>
        <mxCell id="puCfPJYySm3gpiYqL4hh-31" value="" style="edgeStyle=orthogonalEdgeStyle;rounded=0;orthogonalLoop=1;jettySize=auto;html=1;" edge="1" parent="1" source="puCfPJYySm3gpiYqL4hh-29" target="puCfPJYySm3gpiYqL4hh-24">
          <mxGeometry relative="1" as="geometry" />
        </mxCell>
        <mxCell id="puCfPJYySm3gpiYqL4hh-32" value="" style="edgeStyle=orthogonalEdgeStyle;rounded=0;orthogonalLoop=1;jettySize=auto;html=1;" edge="1" parent="1" source="puCfPJYySm3gpiYqL4hh-29" target="puCfPJYySm3gpiYqL4hh-22">
          <mxGeometry relative="1" as="geometry" />
        </mxCell>
        <mxCell id="puCfPJYySm3gpiYqL4hh-29" value="fim" style="strokeWidth=2;html=1;shape=mxgraph.flowchart.start_1;whiteSpace=wrap;fillColor=#990099;" vertex="1" parent="1">
          <mxGeometry x="419" y="590" width="100" height="60" as="geometry" />
        </mxCell>
      </root>
    </mxGraphModel>
  </diagram>
  <diagram id="u8AA6_8cf3dUw8X5iJMm" name="Página-2">
    <mxGraphModel dx="1050" dy="565" grid="1" gridSize="10" guides="1" tooltips="1" connect="1" arrows="1" fold="1" page="1" pageScale="1" pageWidth="827" pageHeight="1169" math="0" shadow="0">
      <root>
        <mxCell id="0" />
        <mxCell id="1" parent="0" />
        <mxCell id="LB8TADGr9JH9MX9IraCv-3" value="" style="edgeStyle=orthogonalEdgeStyle;rounded=0;orthogonalLoop=1;jettySize=auto;html=1;" edge="1" parent="1" source="LB8TADGr9JH9MX9IraCv-1" target="LB8TADGr9JH9MX9IraCv-2">
          <mxGeometry relative="1" as="geometry" />
        </mxCell>
        <mxCell id="LB8TADGr9JH9MX9IraCv-1" value="inicio" style="strokeWidth=2;html=1;shape=mxgraph.flowchart.start_1;whiteSpace=wrap;fillColor=#00CC00;" vertex="1" parent="1">
          <mxGeometry x="190" y="10" width="100" height="60" as="geometry" />
        </mxCell>
        <mxCell id="LB8TADGr9JH9MX9IraCv-5" value="" style="edgeStyle=orthogonalEdgeStyle;rounded=0;orthogonalLoop=1;jettySize=auto;html=1;" edge="1" parent="1" source="LB8TADGr9JH9MX9IraCv-2" target="LB8TADGr9JH9MX9IraCv-4">
          <mxGeometry relative="1" as="geometry" />
        </mxCell>
        <mxCell id="LB8TADGr9JH9MX9IraCv-2" value="solicita" style="shape=parallelogram;perimeter=parallelogramPerimeter;whiteSpace=wrap;html=1;fixedSize=1;fillColor=#FF8000;strokeWidth=2;" vertex="1" parent="1">
          <mxGeometry x="180" y="110" width="120" height="60" as="geometry" />
        </mxCell>
        <mxCell id="LB8TADGr9JH9MX9IraCv-7" value="" style="edgeStyle=orthogonalEdgeStyle;rounded=0;orthogonalLoop=1;jettySize=auto;html=1;" edge="1" parent="1" source="LB8TADGr9JH9MX9IraCv-4" target="LB8TADGr9JH9MX9IraCv-6">
          <mxGeometry relative="1" as="geometry" />
        </mxCell>
        <mxCell id="LB8TADGr9JH9MX9IraCv-4" value="recebe" style="shape=parallelogram;perimeter=parallelogramPerimeter;whiteSpace=wrap;html=1;fixedSize=1;fillColor=#FF8000;strokeWidth=2;" vertex="1" parent="1">
          <mxGeometry x="180" y="210" width="120" height="60" as="geometry" />
        </mxCell>
        <mxCell id="LB8TADGr9JH9MX9IraCv-10" value="" style="edgeStyle=orthogonalEdgeStyle;rounded=0;orthogonalLoop=1;jettySize=auto;html=1;" edge="1" parent="1" source="LB8TADGr9JH9MX9IraCv-6" target="LB8TADGr9JH9MX9IraCv-9">
          <mxGeometry relative="1" as="geometry" />
        </mxCell>
        <mxCell id="LB8TADGr9JH9MX9IraCv-11" value="" style="edgeStyle=orthogonalEdgeStyle;rounded=0;orthogonalLoop=1;jettySize=auto;html=1;" edge="1" parent="1" source="LB8TADGr9JH9MX9IraCv-6" target="LB8TADGr9JH9MX9IraCv-8">
          <mxGeometry relative="1" as="geometry" />
        </mxCell>
        <mxCell id="LB8TADGr9JH9MX9IraCv-6" value="numero maior&amp;nbsp;&lt;br&gt;que 0?" style="strokeWidth=2;html=1;shape=mxgraph.flowchart.decision;whiteSpace=wrap;fillColor=#FF0000;" vertex="1" parent="1">
          <mxGeometry x="190" y="310" width="100" height="80" as="geometry" />
        </mxCell>
        <mxCell id="LB8TADGr9JH9MX9IraCv-8" value="exibe &quot;positivo&quot;" style="strokeWidth=2;html=1;shape=mxgraph.flowchart.display;whiteSpace=wrap;fillColor=#0066CC;" vertex="1" parent="1">
          <mxGeometry x="330" y="420" width="100" height="60" as="geometry" />
        </mxCell>
        <mxCell id="LB8TADGr9JH9MX9IraCv-9" value="exibe &quot;negativo" style="strokeWidth=2;html=1;shape=mxgraph.flowchart.display;whiteSpace=wrap;fillColor=#0066CC;" vertex="1" parent="1">
          <mxGeometry x="40" y="420" width="100" height="60" as="geometry" />
        </mxCell>
        <mxCell id="LB8TADGr9JH9MX9IraCv-12" value="SIM" style="text;html=1;align=center;verticalAlign=middle;resizable=0;points=[];autosize=1;strokeColor=none;fillColor=none;" vertex="1" parent="1">
          <mxGeometry x="320" y="318" width="40" height="30" as="geometry" />
        </mxCell>
        <mxCell id="LB8TADGr9JH9MX9IraCv-13" value="NÂO" style="text;html=1;align=center;verticalAlign=middle;resizable=0;points=[];autosize=1;strokeColor=none;fillColor=none;" vertex="1" parent="1">
          <mxGeometry x="105" y="318" width="50" height="30" as="geometry" />
        </mxCell>
        <mxCell id="LB8TADGr9JH9MX9IraCv-15" value="" style="edgeStyle=orthogonalEdgeStyle;rounded=0;orthogonalLoop=1;jettySize=auto;html=1;" edge="1" parent="1" source="LB8TADGr9JH9MX9IraCv-14" target="LB8TADGr9JH9MX9IraCv-9">
          <mxGeometry relative="1" as="geometry" />
        </mxCell>
        <mxCell id="LB8TADGr9JH9MX9IraCv-16" value="" style="edgeStyle=orthogonalEdgeStyle;rounded=0;orthogonalLoop=1;jettySize=auto;html=1;" edge="1" parent="1" source="LB8TADGr9JH9MX9IraCv-14" target="LB8TADGr9JH9MX9IraCv-8">
          <mxGeometry relative="1" as="geometry" />
        </mxCell>
        <mxCell id="LB8TADGr9JH9MX9IraCv-14" value="fim" style="strokeWidth=2;html=1;shape=mxgraph.flowchart.start_1;whiteSpace=wrap;fillColor=#FF33FF;" vertex="1" parent="1">
          <mxGeometry x="190" y="510" width="100" height="60" as="geometry" />
        </mxCell>
      </root>
    </mxGraphModel>
  </diagram>
  <diagram id="oLiABdZytGg-Tgb8OlMd" name="Página-3">
    <mxGraphModel dx="1050" dy="565" grid="1" gridSize="10" guides="1" tooltips="1" connect="1" arrows="1" fold="1" page="1" pageScale="1" pageWidth="827" pageHeight="1169" math="0" shadow="0">
      <root>
        <mxCell id="0" />
        <mxCell id="1" parent="0" />
        <mxCell id="jWlJEUKYjVBf8P0dUrja-3" value="" style="edgeStyle=orthogonalEdgeStyle;rounded=0;orthogonalLoop=1;jettySize=auto;html=1;" edge="1" parent="1" source="jWlJEUKYjVBf8P0dUrja-1" target="jWlJEUKYjVBf8P0dUrja-2">
          <mxGeometry relative="1" as="geometry" />
        </mxCell>
        <mxCell id="jWlJEUKYjVBf8P0dUrja-1" value="inicio" style="strokeWidth=2;html=1;shape=mxgraph.flowchart.start_1;whiteSpace=wrap;fillColor=#00FF00;" vertex="1" parent="1">
          <mxGeometry x="170" y="20" width="100" height="60" as="geometry" />
        </mxCell>
        <mxCell id="jWlJEUKYjVBf8P0dUrja-5" value="" style="edgeStyle=orthogonalEdgeStyle;rounded=0;orthogonalLoop=1;jettySize=auto;html=1;" edge="1" parent="1" source="jWlJEUKYjVBf8P0dUrja-2" target="jWlJEUKYjVBf8P0dUrja-4">
          <mxGeometry relative="1" as="geometry" />
        </mxCell>
        <mxCell id="jWlJEUKYjVBf8P0dUrja-2" value="solicita 1º numero" style="shape=parallelogram;perimeter=parallelogramPerimeter;whiteSpace=wrap;html=1;fixedSize=1;fillColor=#FF8000;strokeWidth=2;" vertex="1" parent="1">
          <mxGeometry x="160" y="120" width="120" height="60" as="geometry" />
        </mxCell>
        <mxCell id="jWlJEUKYjVBf8P0dUrja-7" value="" style="edgeStyle=orthogonalEdgeStyle;rounded=0;orthogonalLoop=1;jettySize=auto;html=1;" edge="1" parent="1" source="jWlJEUKYjVBf8P0dUrja-4" target="jWlJEUKYjVBf8P0dUrja-6">
          <mxGeometry relative="1" as="geometry" />
        </mxCell>
        <mxCell id="jWlJEUKYjVBf8P0dUrja-4" value="solicita 2º numero" style="shape=parallelogram;perimeter=parallelogramPerimeter;whiteSpace=wrap;html=1;fixedSize=1;fillColor=#FF8000;strokeWidth=2;" vertex="1" parent="1">
          <mxGeometry x="160" y="210" width="120" height="60" as="geometry" />
        </mxCell>
        <mxCell id="jWlJEUKYjVBf8P0dUrja-10" value="" style="edgeStyle=orthogonalEdgeStyle;rounded=0;orthogonalLoop=1;jettySize=auto;html=1;" edge="1" parent="1" source="jWlJEUKYjVBf8P0dUrja-6" target="jWlJEUKYjVBf8P0dUrja-9">
          <mxGeometry relative="1" as="geometry" />
        </mxCell>
        <mxCell id="jWlJEUKYjVBf8P0dUrja-12" value="" style="edgeStyle=orthogonalEdgeStyle;rounded=0;orthogonalLoop=1;jettySize=auto;html=1;" edge="1" parent="1" source="jWlJEUKYjVBf8P0dUrja-6" target="jWlJEUKYjVBf8P0dUrja-8">
          <mxGeometry relative="1" as="geometry" />
        </mxCell>
        <mxCell id="jWlJEUKYjVBf8P0dUrja-6" value="1º numero&amp;nbsp;&lt;br&gt;maior que o&lt;br&gt;2º numero?" style="rhombus;whiteSpace=wrap;html=1;fillColor=#FF0000;strokeWidth=2;" vertex="1" parent="1">
          <mxGeometry x="170" y="300" width="100" height="80" as="geometry" />
        </mxCell>
        <mxCell id="jWlJEUKYjVBf8P0dUrja-17" value="" style="edgeStyle=orthogonalEdgeStyle;rounded=0;orthogonalLoop=1;jettySize=auto;html=1;" edge="1" parent="1" source="jWlJEUKYjVBf8P0dUrja-8" target="jWlJEUKYjVBf8P0dUrja-15">
          <mxGeometry relative="1" as="geometry">
            <Array as="points">
              <mxPoint x="350" y="585" />
            </Array>
          </mxGeometry>
        </mxCell>
        <mxCell id="jWlJEUKYjVBf8P0dUrja-8" value="exibe &quot;maior&quot;" style="strokeWidth=2;html=1;shape=mxgraph.flowchart.display;whiteSpace=wrap;fillColor=#B266FF;" vertex="1" parent="1">
          <mxGeometry x="300" y="420" width="100" height="60" as="geometry" />
        </mxCell>
        <mxCell id="jWlJEUKYjVBf8P0dUrja-16" value="" style="edgeStyle=orthogonalEdgeStyle;rounded=0;orthogonalLoop=1;jettySize=auto;html=1;" edge="1" parent="1" source="jWlJEUKYjVBf8P0dUrja-9" target="jWlJEUKYjVBf8P0dUrja-15">
          <mxGeometry relative="1" as="geometry">
            <Array as="points">
              <mxPoint x="80" y="585" />
            </Array>
          </mxGeometry>
        </mxCell>
        <mxCell id="jWlJEUKYjVBf8P0dUrja-9" value="exibe &quot;menor&quot;" style="strokeWidth=2;html=1;shape=mxgraph.flowchart.display;whiteSpace=wrap;fillColor=#B266FF;" vertex="1" parent="1">
          <mxGeometry x="30" y="420" width="100" height="60" as="geometry" />
        </mxCell>
        <mxCell id="jWlJEUKYjVBf8P0dUrja-13" value="SIM" style="text;html=1;align=center;verticalAlign=middle;resizable=0;points=[];autosize=1;strokeColor=none;fillColor=none;" vertex="1" parent="1">
          <mxGeometry x="290" y="310" width="40" height="30" as="geometry" />
        </mxCell>
        <mxCell id="jWlJEUKYjVBf8P0dUrja-14" value="NÂO" style="text;html=1;align=center;verticalAlign=middle;resizable=0;points=[];autosize=1;strokeColor=none;fillColor=none;" vertex="1" parent="1">
          <mxGeometry x="95" y="310" width="50" height="30" as="geometry" />
        </mxCell>
        <mxCell id="jWlJEUKYjVBf8P0dUrja-15" value="fim" style="strokeWidth=2;html=1;shape=mxgraph.flowchart.start_1;whiteSpace=wrap;fillColor=#808080;" vertex="1" parent="1">
          <mxGeometry x="170" y="555" width="100" height="60" as="geometry" />
        </mxCell>
      </root>
    </mxGraphModel>
  </diagram>
  <diagram id="0FUUnJnDaOgnSrEdmiF4" name="Página-4">
    <mxGraphModel dx="1050" dy="565" grid="1" gridSize="10" guides="1" tooltips="1" connect="1" arrows="1" fold="1" page="1" pageScale="1" pageWidth="827" pageHeight="1169" math="0" shadow="0">
      <root>
        <mxCell id="0" />
        <mxCell id="1" parent="0" />
        <mxCell id="uBc5TDRp_cb1Ri_1YfHB-3" value="" style="edgeStyle=orthogonalEdgeStyle;rounded=0;orthogonalLoop=1;jettySize=auto;html=1;" edge="1" parent="1" source="uBc5TDRp_cb1Ri_1YfHB-1" target="uBc5TDRp_cb1Ri_1YfHB-2">
          <mxGeometry relative="1" as="geometry" />
        </mxCell>
        <mxCell id="uBc5TDRp_cb1Ri_1YfHB-1" value="inicio" style="strokeWidth=2;html=1;shape=mxgraph.flowchart.start_1;whiteSpace=wrap;fillColor=#00FF00;" vertex="1" parent="1">
          <mxGeometry x="180" y="40" width="100" height="60" as="geometry" />
        </mxCell>
        <mxCell id="zc_U5HdRvUF1sLg9kjK--2" value="" style="edgeStyle=orthogonalEdgeStyle;rounded=0;orthogonalLoop=1;jettySize=auto;html=1;" edge="1" parent="1" source="uBc5TDRp_cb1Ri_1YfHB-2">
          <mxGeometry relative="1" as="geometry">
            <mxPoint x="230" y="240" as="targetPoint" />
          </mxGeometry>
        </mxCell>
        <mxCell id="5GD3SxlZ-YZRzLsLIVCw-7" value="" style="edgeStyle=orthogonalEdgeStyle;rounded=0;orthogonalLoop=1;jettySize=auto;html=1;" edge="1" parent="1" source="uBc5TDRp_cb1Ri_1YfHB-2" target="uBc5TDRp_cb1Ri_1YfHB-1">
          <mxGeometry relative="1" as="geometry" />
        </mxCell>
        <mxCell id="uBc5TDRp_cb1Ri_1YfHB-2" value="solicita a idade" style="shape=parallelogram;perimeter=parallelogramPerimeter;whiteSpace=wrap;html=1;fixedSize=1;strokeWidth=2;fillColor=#FF8000;" vertex="1" parent="1">
          <mxGeometry x="170" y="140" width="120" height="60" as="geometry" />
        </mxCell>
        <mxCell id="lWzDQDk35PGeYSOHMP8Q-3" value="" style="edgeStyle=orthogonalEdgeStyle;rounded=0;orthogonalLoop=1;jettySize=auto;html=1;" edge="1" parent="1" target="lWzDQDk35PGeYSOHMP8Q-2">
          <mxGeometry relative="1" as="geometry">
            <mxPoint x="180" y="280" as="sourcePoint" />
          </mxGeometry>
        </mxCell>
        <mxCell id="lWzDQDk35PGeYSOHMP8Q-4" value="" style="edgeStyle=orthogonalEdgeStyle;rounded=0;orthogonalLoop=1;jettySize=auto;html=1;" edge="1" parent="1">
          <mxGeometry relative="1" as="geometry">
            <mxPoint x="280" y="280" as="sourcePoint" />
            <mxPoint x="380" y="360" as="targetPoint" />
          </mxGeometry>
        </mxCell>
        <mxCell id="lWzDQDk35PGeYSOHMP8Q-2" value="não pode votar" style="strokeWidth=2;html=1;shape=mxgraph.flowchart.display;whiteSpace=wrap;fillColor=#FF66B3;" vertex="1" parent="1">
          <mxGeometry x="30" y="360" width="100" height="60" as="geometry" />
        </mxCell>
        <mxCell id="5GD3SxlZ-YZRzLsLIVCw-5" value="" style="edgeStyle=orthogonalEdgeStyle;rounded=0;orthogonalLoop=1;jettySize=auto;html=1;" edge="1" parent="1" source="5GD3SxlZ-YZRzLsLIVCw-1">
          <mxGeometry relative="1" as="geometry">
            <mxPoint x="380" y="420" as="targetPoint" />
          </mxGeometry>
        </mxCell>
        <mxCell id="5GD3SxlZ-YZRzLsLIVCw-6" value="" style="edgeStyle=orthogonalEdgeStyle;rounded=0;orthogonalLoop=1;jettySize=auto;html=1;" edge="1" parent="1" source="5GD3SxlZ-YZRzLsLIVCw-1" target="lWzDQDk35PGeYSOHMP8Q-2">
          <mxGeometry relative="1" as="geometry" />
        </mxCell>
        <mxCell id="y2l8qGOgxi5_6HOkFX5t-14" style="edgeStyle=orthogonalEdgeStyle;rounded=0;orthogonalLoop=1;jettySize=auto;html=1;" edge="1" parent="1" source="5GD3SxlZ-YZRzLsLIVCw-1">
          <mxGeometry relative="1" as="geometry">
            <mxPoint x="510" y="650" as="targetPoint" />
          </mxGeometry>
        </mxCell>
        <mxCell id="5GD3SxlZ-YZRzLsLIVCw-1" value="fim" style="strokeWidth=2;html=1;shape=mxgraph.flowchart.start_1;whiteSpace=wrap;fillColor=#6666FF;" vertex="1" parent="1">
          <mxGeometry x="180" y="620" width="100" height="60" as="geometry" />
        </mxCell>
        <mxCell id="WNE1wgAr1KEu4IxLTHjd-1" value="SIM" style="text;html=1;align=center;verticalAlign=middle;resizable=0;points=[];autosize=1;strokeColor=none;fillColor=none;" vertex="1" parent="1">
          <mxGeometry x="310" y="250" width="40" height="30" as="geometry" />
        </mxCell>
        <mxCell id="WNE1wgAr1KEu4IxLTHjd-2" value="NÂO" style="text;html=1;align=center;verticalAlign=middle;resizable=0;points=[];autosize=1;strokeColor=none;fillColor=none;" vertex="1" parent="1">
          <mxGeometry x="100" y="250" width="50" height="30" as="geometry" />
        </mxCell>
        <mxCell id="WNE1wgAr1KEu4IxLTHjd-3" value="maior de 16" style="strokeWidth=2;html=1;shape=mxgraph.flowchart.decision;whiteSpace=wrap;fillColor=#FFD966;" vertex="1" parent="1">
          <mxGeometry x="180" y="240" width="100" height="100" as="geometry" />
        </mxCell>
        <mxCell id="y2l8qGOgxi5_6HOkFX5t-3" value="" style="edgeStyle=orthogonalEdgeStyle;rounded=0;orthogonalLoop=1;jettySize=auto;html=1;" edge="1" parent="1" source="y2l8qGOgxi5_6HOkFX5t-1" target="y2l8qGOgxi5_6HOkFX5t-2">
          <mxGeometry relative="1" as="geometry" />
        </mxCell>
        <mxCell id="y2l8qGOgxi5_6HOkFX5t-5" value="" style="edgeStyle=orthogonalEdgeStyle;rounded=0;orthogonalLoop=1;jettySize=auto;html=1;" edge="1" parent="1" source="y2l8qGOgxi5_6HOkFX5t-1" target="y2l8qGOgxi5_6HOkFX5t-4">
          <mxGeometry relative="1" as="geometry" />
        </mxCell>
        <mxCell id="y2l8qGOgxi5_6HOkFX5t-1" value="maior de 18" style="strokeWidth=2;html=1;shape=mxgraph.flowchart.decision;whiteSpace=wrap;fillColor=#FFB570;" vertex="1" parent="1">
          <mxGeometry x="330" y="340" width="100" height="100" as="geometry" />
        </mxCell>
        <mxCell id="y2l8qGOgxi5_6HOkFX5t-12" value="" style="edgeStyle=orthogonalEdgeStyle;rounded=0;orthogonalLoop=1;jettySize=auto;html=1;" edge="1" parent="1" source="y2l8qGOgxi5_6HOkFX5t-2" target="5GD3SxlZ-YZRzLsLIVCw-1">
          <mxGeometry relative="1" as="geometry" />
        </mxCell>
        <mxCell id="y2l8qGOgxi5_6HOkFX5t-2" value="opcional" style="strokeWidth=2;html=1;shape=mxgraph.flowchart.display;whiteSpace=wrap;fillColor=#FF66B3;" vertex="1" parent="1">
          <mxGeometry x="180" y="470" width="100" height="60" as="geometry" />
        </mxCell>
        <mxCell id="y2l8qGOgxi5_6HOkFX5t-13" style="edgeStyle=orthogonalEdgeStyle;rounded=0;orthogonalLoop=1;jettySize=auto;html=1;" edge="1" parent="1">
          <mxGeometry relative="1" as="geometry">
            <mxPoint x="509.5" y="660" as="targetPoint" />
            <mxPoint x="509.5" y="530" as="sourcePoint" />
          </mxGeometry>
        </mxCell>
        <mxCell id="y2l8qGOgxi5_6HOkFX5t-4" value="obrigatório" style="strokeWidth=2;html=1;shape=mxgraph.flowchart.display;whiteSpace=wrap;fillColor=#FF66B3;" vertex="1" parent="1">
          <mxGeometry x="460" y="470" width="100" height="60" as="geometry" />
        </mxCell>
        <mxCell id="y2l8qGOgxi5_6HOkFX5t-6" value="SIM" style="text;html=1;align=center;verticalAlign=middle;resizable=0;points=[];autosize=1;strokeColor=none;fillColor=none;" vertex="1" parent="1">
          <mxGeometry x="450" y="360" width="40" height="30" as="geometry" />
        </mxCell>
        <mxCell id="y2l8qGOgxi5_6HOkFX5t-7" value="NÂO" style="text;html=1;align=center;verticalAlign=middle;resizable=0;points=[];autosize=1;strokeColor=none;fillColor=none;" vertex="1" parent="1">
          <mxGeometry x="270" y="360" width="50" height="30" as="geometry" />
        </mxCell>
      </root>
    </mxGraphModel>
  </diagram>
</mxfile>
